<svg width="32" height="32" viewBox="0 0 32 32" fill="none" xmlns="http://www.w3.org/2000/svg">
  <rect width="32" height="32" rx="6" fill="#16a34a"/>
  <path d="M16 6C15.4696 6 14.9609 6.21071 14.5858 6.58579C14.2107 6.96086 14 7.46957 14 8V10H10C9.46957 10 8.96086 10.2107 8.58579 10.5858C8.21071 10.9609 8 11.4696 8 12V14H10V12H14V14H18V12H22V14H24V12C24 11.4696 23.7893 10.9609 23.4142 10.5858C23.0391 10.2107 22.5304 10 22 10H18V8C18 7.46957 17.7893 6.96086 17.4142 6.58579C17.0391 6.21071 16.5304 6 16 6ZM16 8H16.01M8 16V24C8 24.5304 8.21071 25.0391 8.58579 25.4142C8.96086 25.7893 9.46957 26 10 26H22C22.5304 26 23.0391 25.7893 23.4142 25.4142C23.7893 25.0391 24 24.5304 24 24V16H8ZM12 20H14V22H12V20ZM18 20H20V22H18V20Z" fill="white"/>
</svg>
